<mxfile host="app.diagrams.net" agent="Mozilla/5.0 (Windows NT 10.0; Win64; x64) AppleWebKit/537.36 (KHTML, like Gecko) Chrome/125.0.0.0 Safari/537.36 OPR/111.0.0.0" version="24.7.4">
  <diagram name="Page-1" id="zvYny_T2RonzZxc2aqkE">
    <mxGraphModel dx="2953" dy="1140" grid="1" gridSize="10" guides="1" tooltips="1" connect="1" arrows="1" fold="1" page="1" pageScale="1" pageWidth="850" pageHeight="1100" math="0" shadow="0">
      <root>
        <mxCell id="0" />
        <mxCell id="1" parent="0" />
        <mxCell id="PqfvDh0gppkJFQTyY-Ls-37" value="" style="rounded=1;fillColor=none;gradientColor=none;arcSize=10;dashed=1;" vertex="1" parent="1">
          <mxGeometry x="61" y="40" width="950" height="750" as="geometry" />
        </mxCell>
        <mxCell id="PqfvDh0gppkJFQTyY-Ls-28" style="edgeStyle=orthogonalEdgeStyle;rounded=0;orthogonalLoop=1;jettySize=auto;html=1;" edge="1" parent="1" source="PqfvDh0gppkJFQTyY-Ls-1" target="PqfvDh0gppkJFQTyY-Ls-13">
          <mxGeometry relative="1" as="geometry" />
        </mxCell>
        <mxCell id="PqfvDh0gppkJFQTyY-Ls-35" style="edgeStyle=orthogonalEdgeStyle;rounded=0;orthogonalLoop=1;jettySize=auto;html=1;" edge="1" parent="1" source="PqfvDh0gppkJFQTyY-Ls-1" target="PqfvDh0gppkJFQTyY-Ls-21">
          <mxGeometry relative="1" as="geometry" />
        </mxCell>
        <mxCell id="PqfvDh0gppkJFQTyY-Ls-1" value="" style="fontColor=#0066CC;verticalAlign=top;verticalLabelPosition=bottom;labelPosition=center;align=center;html=1;outlineConnect=0;fillColor=#CCCCCC;strokeColor=#6881B3;gradientColor=none;gradientDirection=north;strokeWidth=2;shape=mxgraph.networks.pc;" vertex="1" parent="1">
          <mxGeometry x="-110" y="540" width="100" height="70" as="geometry" />
        </mxCell>
        <mxCell id="PqfvDh0gppkJFQTyY-Ls-23" style="edgeStyle=orthogonalEdgeStyle;rounded=0;orthogonalLoop=1;jettySize=auto;html=1;" edge="1" parent="1" source="PqfvDh0gppkJFQTyY-Ls-2" target="PqfvDh0gppkJFQTyY-Ls-10">
          <mxGeometry relative="1" as="geometry" />
        </mxCell>
        <mxCell id="PqfvDh0gppkJFQTyY-Ls-2" value="" style="fontColor=#0066CC;verticalAlign=top;verticalLabelPosition=bottom;labelPosition=center;align=center;html=1;outlineConnect=0;fillColor=#CCCCCC;strokeColor=#6881B3;gradientColor=none;gradientDirection=north;strokeWidth=2;shape=mxgraph.networks.pc;" vertex="1" parent="1">
          <mxGeometry x="-110" y="160" width="100" height="70" as="geometry" />
        </mxCell>
        <mxCell id="PqfvDh0gppkJFQTyY-Ls-29" style="edgeStyle=orthogonalEdgeStyle;rounded=0;orthogonalLoop=1;jettySize=auto;html=1;" edge="1" parent="1" source="PqfvDh0gppkJFQTyY-Ls-3" target="PqfvDh0gppkJFQTyY-Ls-8">
          <mxGeometry relative="1" as="geometry" />
        </mxCell>
        <mxCell id="PqfvDh0gppkJFQTyY-Ls-3" value="" style="html=1;verticalLabelPosition=bottom;align=center;labelBackgroundColor=#ffffff;verticalAlign=top;strokeWidth=2;strokeColor=#0080F0;shadow=0;dashed=0;shape=mxgraph.ios7.icons.smartphone;" vertex="1" parent="1">
          <mxGeometry x="1100" y="489.5" width="40" height="80" as="geometry" />
        </mxCell>
        <mxCell id="PqfvDh0gppkJFQTyY-Ls-26" style="edgeStyle=orthogonalEdgeStyle;rounded=0;orthogonalLoop=1;jettySize=auto;html=1;" edge="1" parent="1" source="PqfvDh0gppkJFQTyY-Ls-4" target="PqfvDh0gppkJFQTyY-Ls-6">
          <mxGeometry relative="1" as="geometry" />
        </mxCell>
        <mxCell id="PqfvDh0gppkJFQTyY-Ls-4" value="" style="outlineConnect=0;dashed=0;verticalLabelPosition=bottom;verticalAlign=top;align=center;html=1;shape=mxgraph.aws3.ec2;fillColor=#F58534;gradientColor=none;" vertex="1" parent="1">
          <mxGeometry x="290" y="150" width="76.5" height="93" as="geometry" />
        </mxCell>
        <mxCell id="PqfvDh0gppkJFQTyY-Ls-30" style="edgeStyle=orthogonalEdgeStyle;rounded=0;orthogonalLoop=1;jettySize=auto;html=1;curved=1;" edge="1" parent="1" source="PqfvDh0gppkJFQTyY-Ls-5" target="PqfvDh0gppkJFQTyY-Ls-7">
          <mxGeometry relative="1" as="geometry" />
        </mxCell>
        <mxCell id="PqfvDh0gppkJFQTyY-Ls-34" style="edgeStyle=orthogonalEdgeStyle;rounded=0;orthogonalLoop=1;jettySize=auto;html=1;curved=1;" edge="1" parent="1" source="PqfvDh0gppkJFQTyY-Ls-5" target="PqfvDh0gppkJFQTyY-Ls-9">
          <mxGeometry relative="1" as="geometry" />
        </mxCell>
        <mxCell id="PqfvDh0gppkJFQTyY-Ls-5" value="" style="outlineConnect=0;dashed=0;verticalLabelPosition=bottom;verticalAlign=top;align=center;html=1;shape=mxgraph.aws3.ec2;fillColor=#F58534;gradientColor=none;" vertex="1" parent="1">
          <mxGeometry x="260" y="490" width="76.5" height="93" as="geometry" />
        </mxCell>
        <mxCell id="PqfvDh0gppkJFQTyY-Ls-31" style="edgeStyle=orthogonalEdgeStyle;rounded=0;orthogonalLoop=1;jettySize=auto;html=1;curved=1;" edge="1" parent="1" source="PqfvDh0gppkJFQTyY-Ls-6" target="PqfvDh0gppkJFQTyY-Ls-7">
          <mxGeometry relative="1" as="geometry" />
        </mxCell>
        <mxCell id="PqfvDh0gppkJFQTyY-Ls-6" value="" style="outlineConnect=0;dashed=0;verticalLabelPosition=bottom;verticalAlign=top;align=center;html=1;shape=mxgraph.aws3.ec2;fillColor=#F58534;gradientColor=none;" vertex="1" parent="1">
          <mxGeometry x="710" y="117" width="76.5" height="93" as="geometry" />
        </mxCell>
        <mxCell id="PqfvDh0gppkJFQTyY-Ls-7" value="" style="outlineConnect=0;dashed=0;verticalLabelPosition=bottom;verticalAlign=top;align=center;html=1;shape=mxgraph.aws3.rds;fillColor=#2E73B8;gradientColor=none;" vertex="1" parent="1">
          <mxGeometry x="400" y="823" width="72" height="81" as="geometry" />
        </mxCell>
        <mxCell id="PqfvDh0gppkJFQTyY-Ls-32" style="edgeStyle=orthogonalEdgeStyle;rounded=0;orthogonalLoop=1;jettySize=auto;html=1;curved=1;" edge="1" parent="1" source="PqfvDh0gppkJFQTyY-Ls-8" target="PqfvDh0gppkJFQTyY-Ls-7">
          <mxGeometry relative="1" as="geometry" />
        </mxCell>
        <mxCell id="PqfvDh0gppkJFQTyY-Ls-33" style="edgeStyle=orthogonalEdgeStyle;rounded=0;orthogonalLoop=1;jettySize=auto;html=1;curved=1;" edge="1" parent="1" source="PqfvDh0gppkJFQTyY-Ls-8" target="PqfvDh0gppkJFQTyY-Ls-9">
          <mxGeometry relative="1" as="geometry" />
        </mxCell>
        <mxCell id="PqfvDh0gppkJFQTyY-Ls-8" value="" style="outlineConnect=0;dashed=0;verticalLabelPosition=bottom;verticalAlign=top;align=center;html=1;shape=mxgraph.aws3.ec2;fillColor=#F58534;gradientColor=none;" vertex="1" parent="1">
          <mxGeometry x="750" y="480" width="76.5" height="93" as="geometry" />
        </mxCell>
        <mxCell id="PqfvDh0gppkJFQTyY-Ls-9" value="" style="dashed=0;outlineConnect=0;html=1;align=center;labelPosition=center;verticalLabelPosition=bottom;verticalAlign=top;shape=mxgraph.weblogos.mongodb" vertex="1" parent="1">
          <mxGeometry x="654.4" y="815" width="41.2" height="86.2" as="geometry" />
        </mxCell>
        <mxCell id="PqfvDh0gppkJFQTyY-Ls-24" style="edgeStyle=orthogonalEdgeStyle;rounded=0;orthogonalLoop=1;jettySize=auto;html=1;" edge="1" parent="1" source="PqfvDh0gppkJFQTyY-Ls-10" target="PqfvDh0gppkJFQTyY-Ls-4">
          <mxGeometry relative="1" as="geometry" />
        </mxCell>
        <mxCell id="PqfvDh0gppkJFQTyY-Ls-10" value="" style="image;aspect=fixed;perimeter=ellipsePerimeter;html=1;align=center;shadow=0;dashed=0;spacingTop=3;image=img/lib/active_directory/web_server.svg;" vertex="1" parent="1">
          <mxGeometry x="130" y="168" width="60" height="75" as="geometry" />
        </mxCell>
        <mxCell id="PqfvDh0gppkJFQTyY-Ls-11" value="Web App Deployement" style="text;html=1;align=center;verticalAlign=middle;resizable=0;points=[];autosize=1;strokeColor=none;fillColor=none;" vertex="1" parent="1">
          <mxGeometry x="255" y="248" width="150" height="30" as="geometry" />
        </mxCell>
        <mxCell id="PqfvDh0gppkJFQTyY-Ls-12" value="Nginx Web Server" style="text;html=1;align=center;verticalAlign=middle;resizable=0;points=[];autosize=1;strokeColor=none;fillColor=none;" vertex="1" parent="1">
          <mxGeometry x="100" y="248" width="120" height="30" as="geometry" />
        </mxCell>
        <mxCell id="PqfvDh0gppkJFQTyY-Ls-13" value="" style="image;sketch=0;aspect=fixed;html=1;points=[];align=center;fontSize=12;image=img/lib/mscae/Docker.svg;" vertex="1" parent="1">
          <mxGeometry x="240" y="506" width="50" height="41" as="geometry" />
        </mxCell>
        <mxCell id="PqfvDh0gppkJFQTyY-Ls-14" value="" style="image;sketch=0;aspect=fixed;html=1;points=[];align=center;fontSize=12;image=img/lib/mscae/Docker.svg;" vertex="1" parent="1">
          <mxGeometry x="786.5" y="480" width="50" height="41" as="geometry" />
        </mxCell>
        <mxCell id="PqfvDh0gppkJFQTyY-Ls-15" value="" style="image;sketch=0;aspect=fixed;html=1;points=[];align=center;fontSize=12;image=img/lib/mscae/Docker.svg;" vertex="1" parent="1">
          <mxGeometry x="690" y="123.8" width="50" height="41" as="geometry" />
        </mxCell>
        <mxCell id="PqfvDh0gppkJFQTyY-Ls-16" value="Mobile Application Backend" style="text;html=1;align=center;verticalAlign=middle;resizable=0;points=[];autosize=1;strokeColor=none;fillColor=none;" vertex="1" parent="1">
          <mxGeometry x="715" y="588" width="170" height="30" as="geometry" />
        </mxCell>
        <mxCell id="PqfvDh0gppkJFQTyY-Ls-17" value="Central PostrgerSQL Database" style="text;html=1;align=center;verticalAlign=middle;resizable=0;points=[];autosize=1;strokeColor=none;fillColor=none;" vertex="1" parent="1">
          <mxGeometry x="350" y="910" width="190" height="30" as="geometry" />
        </mxCell>
        <mxCell id="PqfvDh0gppkJFQTyY-Ls-18" value="MonogDB Atlas" style="text;html=1;align=center;verticalAlign=middle;resizable=0;points=[];autosize=1;strokeColor=none;fillColor=none;" vertex="1" parent="1">
          <mxGeometry x="620" y="901.2" width="110" height="30" as="geometry" />
        </mxCell>
        <mxCell id="PqfvDh0gppkJFQTyY-Ls-19" value="POS Backend" style="text;html=1;align=center;verticalAlign=middle;resizable=0;points=[];autosize=1;strokeColor=none;fillColor=none;" vertex="1" parent="1">
          <mxGeometry x="236.5" y="588" width="100" height="30" as="geometry" />
        </mxCell>
        <mxCell id="PqfvDh0gppkJFQTyY-Ls-20" value="POS and Webapp backends running&lt;div&gt;on Docker Containers&lt;/div&gt;" style="text;html=1;align=center;verticalAlign=middle;resizable=0;points=[];autosize=1;strokeColor=none;fillColor=none;" vertex="1" parent="1">
          <mxGeometry x="786.5" y="133" width="220" height="40" as="geometry" />
        </mxCell>
        <mxCell id="PqfvDh0gppkJFQTyY-Ls-21" value="" style="outlineConnect=0;dashed=0;verticalLabelPosition=bottom;verticalAlign=top;align=center;html=1;shape=mxgraph.aws3.redis;fillColor=#2E73B8;gradientColor=none;" vertex="1" parent="1">
          <mxGeometry x="-90" y="760" width="60" height="63" as="geometry" />
        </mxCell>
        <mxCell id="PqfvDh0gppkJFQTyY-Ls-22" value="Redis Database For Caching In Local" style="text;html=1;align=center;verticalAlign=middle;resizable=0;points=[];autosize=1;strokeColor=none;fillColor=none;" vertex="1" parent="1">
          <mxGeometry x="-170" y="823" width="220" height="30" as="geometry" />
        </mxCell>
        <mxCell id="PqfvDh0gppkJFQTyY-Ls-40" value="AWS Cloud" style="sketch=0;outlineConnect=0;fontColor=#232F3E;gradientColor=none;strokeColor=#232F3E;fillColor=#ffffff;dashed=0;verticalLabelPosition=bottom;verticalAlign=top;align=center;html=1;fontSize=12;fontStyle=0;aspect=fixed;shape=mxgraph.aws4.resourceIcon;resIcon=mxgraph.aws4.aws_cloud;" vertex="1" parent="1">
          <mxGeometry x="70" y="10" width="60" height="60" as="geometry" />
        </mxCell>
        <mxCell id="PqfvDh0gppkJFQTyY-Ls-41" value="" style="rounded=1;arcSize=10;dashed=0;fillColor=none;gradientColor=none;strokeWidth=2;" vertex="1" parent="1">
          <mxGeometry x="340" y="810" width="200" height="130" as="geometry" />
        </mxCell>
      </root>
    </mxGraphModel>
  </diagram>
</mxfile>
